<?xml version="1.0" encoding="utf-8"?>
<!-- Generator: Adobe Illustrator 19.0.1, SVG Export Plug-In . SVG Version: 6.00 Build 0)  -->
<svg version="1.1" id="Layer_1" xmlns="http://www.w3.org/2000/svg" xmlns:xlink="http://www.w3.org/1999/xlink" x="0px" y="0px"
	 viewBox="0 0 232 34" style="enable-background:new 0 0 232 34;" xml:space="preserve">
<style type="text/css">
	.st0{fill:#454545;}
	.st1{fill:#00ACED;}
	.st2{fill:url(#SVGID_1_);}
	.st3{fill:#0074A6;}
	.st4{fill:#FFFFFF;}
	.st5{fill:url(#SVGID_2_);}
</style>
<g>
	<g>
		<g>
			<g id="Call_to_Action_1_">
				<path d="M186.287,3.148c1.884,0,3.057,1.136,3.057,2.995s-1.161,2.982-3.057,2.982h-1.822v2.371
					c0,0.387-0.125,0.512-0.512,0.512h-1.011c-0.387,0-0.512-0.125-0.512-0.512V3.66c0-0.387,0.125-0.512,0.512-0.512H186.287z
					 M186.074,7.266c0.736,0,1.16-0.412,1.16-1.123c0-0.711-0.424-1.148-1.16-1.148h-1.61v2.271H186.074z"/>
				<path d="M192.787,5.332c1.859,0,2.783,0.873,2.783,2.633v3.17c0,0.437-0.1,0.574-0.462,0.724
					c-0.499,0.224-1.285,0.337-2.358,0.337c-1.086,0-1.822-0.162-2.234-0.499c-0.412-0.337-0.624-0.849-0.624-1.56
					c0-1.535,0.811-2.047,2.907-2.047c0.324,0,0.624,0.012,0.886,0.025V7.84c0-0.611-0.324-0.923-0.961-0.923
					c-0.462,0-0.798,0.15-1.036,0.462c-0.212,0.287-0.287,0.337-0.637,0.2l-0.686-0.287c-0.312-0.137-0.4-0.349-0.25-0.661
					C190.579,5.769,191.464,5.332,192.787,5.332 M193.686,9.55c-0.075,0-0.237,0-0.487-0.012c-0.25-0.012-0.437-0.012-0.562-0.012
					c-0.661,0-0.861,0.212-0.861,0.599c0,0.399,0.187,0.611,0.836,0.611c0.437,0,0.774-0.012,0.986-0.05
					c0.062-0.012,0.087-0.05,0.087-0.087V9.55z"/>
				<path d="M202.046,5.519c0.337,0,0.449,0.112,0.449,0.462v6.127c0,1.735-0.898,2.77-2.845,2.77c-1.298,0-2.184-0.387-2.671-1.161
					c-0.212-0.312-0.15-0.562,0.187-0.736l0.711-0.362c0.349-0.187,0.511-0.137,0.724,0.162c0.225,0.312,0.562,0.474,1.011,0.474
					c0.661,0,0.998-0.337,0.998-1.011v-0.512c-0.3,0.062-0.686,0.087-1.16,0.087c-1.797,0-2.695-0.861-2.695-2.583V5.981
					c0-0.349,0.112-0.462,0.462-0.462h0.961c0.35,0,0.462,0.112,0.462,0.462v3.195c0,0.624,0.349,0.936,1.061,0.936
					c0.287,0,0.587-0.025,0.911-0.087V5.981c0-0.349,0.112-0.462,0.462-0.462H202.046z"/>
				<path d="M207.611,2.774c0.337,0,0.449,0.112,0.449,0.462v2.221c0.387-0.087,0.786-0.125,1.173-0.125
					c1.797,0,2.695,0.923,2.695,2.583v1.56c0,1.809-0.973,2.72-2.932,2.72c-0.973,0-1.76-0.137-2.358-0.412
					c-0.399-0.2-0.462-0.3-0.462-0.699V3.236c0-0.349,0.112-0.462,0.462-0.462H207.611z M210.032,7.928
					c0-0.612-0.349-0.911-1.048-0.911c-0.312,0-0.612,0.05-0.923,0.137v3.194c0,0.038,0.012,0.05,0.037,0.063
					c0.212,0.062,0.474,0.1,0.799,0.1c0.761,0,1.136-0.349,1.136-1.036V7.928z"/>
				<path d="M218.317,5.519c0.337,0,0.449,0.112,0.449,0.462v6.127c0,1.735-0.898,2.77-2.845,2.77c-1.298,0-2.184-0.387-2.67-1.161
					c-0.212-0.312-0.15-0.562,0.187-0.736l0.711-0.362c0.349-0.187,0.511-0.137,0.724,0.162c0.225,0.312,0.562,0.474,1.011,0.474
					c0.661,0,0.998-0.337,0.998-1.011v-0.512c-0.3,0.062-0.686,0.087-1.16,0.087c-1.797,0-2.695-0.861-2.695-2.583V5.981
					c0-0.349,0.112-0.462,0.462-0.462h0.961c0.35,0,0.462,0.112,0.462,0.462v3.195c0,0.624,0.349,0.936,1.061,0.936
					c0.287,0,0.587-0.025,0.911-0.087V5.981c0-0.349,0.112-0.462,0.462-0.462H218.317z"/>
				<path d="M193.119,17.255c1.859,0,2.783,0.874,2.783,2.633v3.17c0,0.437-0.1,0.574-0.462,0.724
					c-0.499,0.224-1.285,0.337-2.358,0.337c-1.086,0-1.822-0.162-2.234-0.499c-0.412-0.337-0.624-0.849-0.624-1.56
					c0-1.535,0.811-2.047,2.908-2.047c0.324,0,0.624,0.012,0.886,0.025v-0.275c0-0.611-0.324-0.923-0.961-0.923
					c-0.462,0-0.798,0.15-1.036,0.462c-0.212,0.287-0.287,0.337-0.637,0.2l-0.686-0.287c-0.312-0.137-0.4-0.349-0.25-0.661
					C190.91,17.692,191.796,17.255,193.119,17.255 M194.017,21.473c-0.075,0-0.237,0-0.487-0.012
					c-0.25-0.012-0.437-0.012-0.562-0.012c-0.661,0-0.861,0.212-0.861,0.599c0,0.399,0.187,0.611,0.836,0.611
					c0.437,0,0.774-0.012,0.986-0.05c0.062-0.012,0.087-0.05,0.087-0.087V21.473z"/>
				<path d="M200.081,17.255c1.797,0,2.695,0.861,2.695,2.583v3.631c0,0.349-0.112,0.462-0.449,0.462h-0.973
					c-0.349,0-0.462-0.112-0.462-0.462V19.9c0-0.624-0.349-0.936-1.061-0.936c-0.324,0-0.611,0.037-0.874,0.112
					c-0.025,0-0.037,0.012-0.037,0.05v4.343c0,0.349-0.112,0.462-0.462,0.462h-0.961c-0.349,0-0.462-0.112-0.462-0.462v-5.042
					c0-0.412,0.1-0.561,0.499-0.724C198.259,17.405,199.108,17.255,200.081,17.255"/>
				<path d="M209.764,23.369c0.212,0.399,0.137,0.562-0.312,0.562h-0.861c-0.537,0-0.661-0.063-0.823-0.424l-0.662-1.535
					c-0.137-0.337-0.412-0.499-0.799-0.499h-0.437v1.984c0,0.362-0.112,0.474-0.474,0.474h-0.936c-0.362,0-0.474-0.112-0.474-0.474
					v-8.286c0-0.362,0.112-0.474,0.474-0.474h0.936c0.362,0,0.474,0.112,0.474,0.474v4.63h0.262h0.075l1.41-1.984
					c0.212-0.337,0.349-0.374,0.886-0.374h0.836c0.462,0,0.574,0.187,0.312,0.549l-1.672,2.284c0.25,0.175,0.487,0.474,0.699,0.898
					L209.764,23.369z"/>
				<path d="M215.529,17.255c1.859,0,2.783,0.874,2.783,2.633v3.17c0,0.437-0.1,0.574-0.462,0.724
					c-0.499,0.224-1.285,0.337-2.358,0.337c-1.086,0-1.822-0.162-2.234-0.499c-0.412-0.337-0.624-0.849-0.624-1.56
					c0-1.535,0.811-2.047,2.908-2.047c0.324,0,0.624,0.012,0.886,0.025v-0.275c0-0.611-0.324-0.923-0.961-0.923
					c-0.462,0-0.798,0.15-1.036,0.462c-0.212,0.287-0.287,0.337-0.637,0.2l-0.686-0.287c-0.312-0.137-0.4-0.349-0.25-0.661
					C213.32,17.692,214.206,17.255,215.529,17.255 M216.427,21.473c-0.075,0-0.237,0-0.487-0.012
					c-0.25-0.012-0.437-0.012-0.562-0.012c-0.661,0-0.861,0.212-0.861,0.599c0,0.399,0.187,0.611,0.836,0.611
					c0.437,0,0.774-0.012,0.986-0.05c0.062-0.012,0.087-0.05,0.087-0.087V21.473z"/>
				<path d="M222.479,17.255c1.834,0,2.72,0.923,2.72,2.583v1.572c0,1.76-0.973,2.708-2.883,2.708c-0.287,0-0.611-0.037-0.986-0.112
					v2.209c0,0.349-0.112,0.462-0.449,0.462h-0.973c-0.35,0-0.462-0.112-0.462-0.462v-7.849c0-0.412,0.1-0.561,0.499-0.724
					C220.62,17.379,221.468,17.255,222.479,17.255 M223.303,19.85c0-0.612-0.349-0.911-1.048-0.911
					c-0.287,0-0.574,0.025-0.861,0.087c-0.038,0.012-0.063,0.037-0.063,0.087v3.245c0.312,0.05,0.599,0.075,0.836,0.075
					c0.761,0,1.136-0.337,1.136-1.023V19.85z"/>
				<path d="M229.28,17.255c1.834,0,2.72,0.923,2.72,2.583v1.572c0,1.76-0.973,2.708-2.883,2.708c-0.287,0-0.611-0.037-0.986-0.112
					v2.209c0,0.349-0.112,0.462-0.449,0.462h-0.973c-0.35,0-0.462-0.112-0.462-0.462v-7.849c0-0.412,0.1-0.561,0.499-0.724
					C227.42,17.379,228.269,17.255,229.28,17.255 M230.103,19.85c0-0.612-0.349-0.911-1.048-0.911c-0.287,0-0.574,0.025-0.861,0.087
					c-0.038,0.012-0.063,0.037-0.063,0.087v3.245c0.312,0.05,0.599,0.075,0.836,0.075c0.761,0,1.136-0.337,1.136-1.023V19.85z"/>
				<path d="M186.443,15.064c1.668,0,2.671,0.865,2.671,2.37c0,0.84-0.288,1.455-0.865,1.856v0.05
					c0.803,0.339,1.204,1.066,1.204,2.157c0,0.777-0.276,1.38-0.815,1.818c-0.552,0.439-1.266,0.652-2.144,0.652h-3.574
					c-0.389,0-0.514-0.126-0.514-0.514v-7.876c0-0.389,0.126-0.514,0.514-0.514H186.443z M186.129,18.575
					c0.615,0,0.916-0.288,0.916-0.853c0-0.564-0.301-0.853-0.916-0.853h-1.68v1.705H186.129z M186.367,20.344h-1.919v1.818h1.919
					c0.627,0,0.941-0.301,0.941-0.903C187.308,20.645,186.994,20.344,186.367,20.344"/>
			</g>
			<path id="Icon_1_" d="M161.967,28.537c0.439,0,0.795,0.356,0.795,0.795s-0.356,0.795-0.795,0.795
				c-0.439,0-0.795-0.356-0.795-0.795S161.529,28.537,161.967,28.537 M177.501,3.15h-10.513c-0.74,0-1.339,0.6-1.339,1.339v3.385
				c0,0.345,0.279,0.624,0.624,0.624h1.621c0.345,0,0.624-0.279,0.624-0.624V6.643c0-0.345,0.279-0.624,0.624-0.624h6.207
				c0.344,0,0.624,0.279,0.624,0.624v13.874c0,0.345-0.279,0.624-0.624,0.624h-9.39l5.931-8.078c0.221-0.3,0.34-0.663,0.34-1.035
				v-0.325c0-0.776-0.629-1.405-1.405-1.405h-14.079c-0.739,0-1.339,0.6-1.339,1.339v18.18c0,0.74,0.6,1.339,1.339,1.339h10.449
				c0.74,0,1.339-0.599,1.339-1.339v-3.385c0-0.345-0.279-0.624-0.624-0.624h-1.621c-0.344,0-0.624,0.279-0.624,0.624v0.507
				c0,0.344-0.279,0.624-0.624,0.624h-6.143c-0.345,0-0.624-0.279-0.624-0.624V13.79c0-0.345,0.279-0.624,0.624-0.624h9.355
				l-5.915,8.095c-0.204,0.293-0.31,0.661-0.31,1.019v0.324c0,0.755,0.623,1.398,1.393,1.404l0,0h14.08
				c0.74,0,1.339-0.599,1.339-1.339V4.49C178.841,3.75,178.241,3.15,177.501,3.15"/>
		</g>
		<g>
			<g>
				<path class="st0" d="M101.065,15.945c0-0.607-0.075-1.139-0.223-1.598c-0.149-0.458-0.349-0.839-0.602-1.142
					c-0.253-0.303-0.547-0.529-0.883-0.678c-0.337-0.148-0.693-0.223-1.068-0.223c-0.298,0-0.57,0.042-0.815,0.126
					c-0.246,0.084-0.476,0.191-0.689,0.32c-0.214,0.129-0.405,0.274-0.573,0.436c-0.168,0.161-0.324,0.313-0.466,0.455v4.144
					c0,0.258,0.042,0.52,0.126,0.784c0.084,0.265,0.223,0.5,0.417,0.707c0.194,0.207,0.45,0.374,0.767,0.504
					c0.317,0.129,0.708,0.193,1.174,0.193c0.518,0,0.958-0.113,1.32-0.339c0.362-0.226,0.653-0.523,0.873-0.891
					c0.22-0.368,0.382-0.797,0.485-1.288C101.013,16.965,101.065,16.461,101.065,15.945L101.065,15.945z M102.774,15.974
					c0,0.815-0.116,1.553-0.348,2.213c-0.232,0.66-0.552,1.22-0.959,1.679c-0.406,0.46-0.881,0.812-1.423,1.058
					c-0.542,0.245-1.123,0.369-1.742,0.369c-0.607,0-1.12-0.092-1.539-0.276c-0.419-0.184-0.758-0.407-1.016-0.67v4.536
					l-1.553,0.448V13.566c0-0.336-0.039-0.699-0.116-1.087c-0.078-0.388-0.22-0.75-0.427-1.087l1.398-0.408
					c0.103,0.142,0.2,0.324,0.291,0.544c0.09,0.22,0.162,0.447,0.214,0.679c0.296-0.284,0.697-0.559,1.2-0.825
					c0.503-0.265,1.071-0.398,1.704-0.398c0.658,0,1.252,0.12,1.781,0.359c0.529,0.239,0.984,0.576,1.365,1.009
					c0.381,0.434,0.671,0.958,0.871,1.572C102.674,14.54,102.774,15.223,102.774,15.974L102.774,15.974z"/>
				<path class="st0" d="M104.598,21.06v-9.628l1.553-0.446V21.06H104.598L104.598,21.06z M106.326,8.694
					c0,0.259-0.094,0.485-0.282,0.679c-0.188,0.194-0.411,0.291-0.67,0.291c-0.259,0-0.485-0.097-0.679-0.291
					c-0.194-0.194-0.291-0.42-0.291-0.679c0-0.259,0.097-0.482,0.291-0.67c0.194-0.187,0.42-0.281,0.679-0.281
					c0.259,0,0.482,0.094,0.67,0.281C106.232,8.212,106.326,8.435,106.326,8.694L106.326,8.694z"/>
				<path class="st0" d="M115.294,21.06v-6.212c0-0.932-0.146-1.589-0.437-1.97c-0.291-0.381-0.799-0.573-1.524-0.573
					c-0.311,0-0.657,0.075-1.038,0.223c-0.382,0.149-0.735,0.346-1.058,0.592c-0.324,0.246-0.595,0.531-0.815,0.854
					c-0.22,0.324-0.33,0.66-0.33,1.01v6.076h-1.553v-9.628l1.553-0.446v1.631c0.181-0.181,0.395-0.369,0.641-0.563
					c0.246-0.194,0.518-0.369,0.815-0.524c0.298-0.155,0.621-0.285,0.971-0.388c0.35-0.103,0.718-0.155,1.107-0.155
					c0.505,0,0.958,0.058,1.359,0.175c0.401,0.117,0.741,0.314,1.019,0.592c0.278,0.279,0.488,0.644,0.631,1.097
					c0.142,0.453,0.213,1.016,0.213,1.689v6.522H115.294L115.294,21.06z"/>
				<path class="st0" d="M125.544,12.848c-0.338-0.181-0.679-0.323-1.023-0.427c-0.344-0.104-0.711-0.155-1.101-0.155
					c-1.014,0-1.803,0.324-2.368,0.971c-0.565,0.647-0.847,1.611-0.847,2.892c0,1.178,0.25,2.094,0.75,2.747
					c0.5,0.654,1.218,0.98,2.153,0.98c0.286,0,0.571-0.055,0.857-0.165c0.286-0.11,0.545-0.256,0.779-0.437
					c0.234-0.181,0.426-0.385,0.575-0.612c0.149-0.226,0.224-0.456,0.224-0.689V12.848L125.544,12.848z M127.097,20.128
					c0,1.76-0.379,3.067-1.137,3.921c-0.758,0.854-1.81,1.281-3.157,1.281c-0.726,0-1.39-0.065-1.992-0.194
					c-0.602-0.129-1.13-0.298-1.583-0.505l-0.116-1.378c0.44,0.181,0.945,0.359,1.516,0.534c0.57,0.175,1.244,0.262,2.021,0.262
					c0.92,0,1.632-0.285,2.138-0.854c0.505-0.57,0.758-1.404,0.758-2.504v-0.563c-0.298,0.246-0.673,0.482-1.126,0.709
					c-0.453,0.226-0.984,0.34-1.592,0.34c-0.66,0-1.255-0.119-1.786-0.359c-0.531-0.239-0.984-0.576-1.359-1.009
					c-0.376-0.433-0.667-0.954-0.874-1.563c-0.207-0.608-0.311-1.281-0.311-2.019c0-0.906,0.132-1.689,0.398-2.349
					c0.265-0.66,0.621-1.204,1.068-1.631c0.446-0.427,0.958-0.744,1.534-0.951c0.576-0.207,1.174-0.311,1.796-0.311
					c0.466,0,0.922,0.055,1.369,0.165c0.447,0.11,0.844,0.249,1.194,0.417l1.243-0.349V20.128L127.097,20.128z"/>
				<path class="st0" d="M129.096,21.06v-9.628l1.553-0.446V21.06H129.096L129.096,21.06z M130.824,8.694
					c0,0.259-0.094,0.485-0.282,0.679c-0.188,0.194-0.411,0.291-0.67,0.291c-0.259,0-0.485-0.097-0.679-0.291
					c-0.194-0.194-0.291-0.42-0.291-0.679c0-0.259,0.097-0.482,0.291-0.67c0.194-0.187,0.42-0.281,0.679-0.281
					c0.259,0,0.482,0.094,0.67,0.281C130.73,8.212,130.824,8.435,130.824,8.694L130.824,8.694z"/>
				<path class="st0" d="M137.967,12.382h-2.388v5.732c0,0.71,0.064,1.197,0.194,1.462c0.129,0.264,0.395,0.397,0.796,0.397
					c0.22,0,0.446-0.026,0.679-0.078c0.233-0.052,0.446-0.117,0.641-0.194l0.369,1.198c-0.298,0.105-0.634,0.197-1.01,0.276
					c-0.376,0.079-0.751,0.118-1.126,0.118c-0.712,0-1.239-0.214-1.582-0.641c-0.343-0.427-0.514-1.107-0.514-2.038v-6.231h-1.961
					l0.427-1.165h1.534V8.752l1.553-0.446v2.912h2.776L137.967,12.382L137.967,12.382z"/>
			</g>
			<g>
				<path class="st1" d="M75.642,0c-6.607,0-11.962,5.354-11.962,11.959c0,0.099,0,0.298,0,0.298v11.43l0.012,0.337
					c0.131,1.499,1.389,2.674,2.922,2.674c1.533,0,2.791-1.176,2.922-2.674l0.012-0.261v-1.512c1.785,1.058,3.868,1.667,6.093,1.667
					c6.607,0,11.962-5.354,11.962-11.959C87.604,5.354,82.248,0,75.642,0z M75.642,18.051c-3.36,0-6.093-2.733-6.093-6.092
					s2.733-6.092,6.093-6.092c3.36,0,6.093,2.733,6.093,6.092S79.002,18.051,75.642,18.051z"/>
				<circle class="st1" cx="66.614" cy="30.806" r="2.934"/>
				<linearGradient id="SVGID_1_" gradientUnits="userSpaceOnUse" x1="69.5462" y1="17.9494" x2="75.6709" y2="17.9494">
					<stop  offset="0" style="stop-color:#117AA9"/>
					<stop  offset="0.0158" style="stop-color:#0F80B1"/>
					<stop  offset="0.0732" style="stop-color:#0A90C7"/>
					<stop  offset="0.1406" style="stop-color:#059DD8"/>
					<stop  offset="0.2228" style="stop-color:#02A5E4"/>
					<stop  offset="0.336" style="stop-color:#00ABEB"/>
					<stop  offset="0.6261" style="stop-color:#00ACED"/>
					<stop  offset="1" style="stop-color:#00ACED"/>
				</linearGradient>
				<path class="st2" d="M69.546,11.977L69.546,11.977l0,10.28c1.794,1.057,3.888,1.665,6.125,1.665v-5.86
					C72.294,18.061,69.546,15.332,69.546,11.977z"/>
			</g>
		</g>
		<rect x="146.58" y="4.909" class="st0" width="0.249" height="22"/>
	</g>
	<g>
		<path class="st3" d="M0,11.345c1.022-0.058,1.889-0.088,2.599-0.088c1.567,0,2.672,0.243,3.315,0.73s0.964,1.157,0.964,2.008
			c0,1.105-0.447,1.966-1.34,2.584c-0.894,0.619-2.15,0.952-3.771,1.001v4.322H0V11.345z M1.767,16.31
			c1.042-0.039,1.842-0.243,2.402-0.613s0.84-0.883,0.84-1.541c0-1.084-0.793-1.628-2.38-1.628c-0.282,0-0.569,0.015-0.862,0.044
			V16.31z"/>
		<path class="st3" d="M14.442,21.719l-1.438,0.366c-0.165-0.22-0.299-0.504-0.402-0.855c-0.716,0.569-1.487,0.855-2.314,0.855
			c-0.759,0-1.351-0.195-1.774-0.584c-0.423-0.389-0.635-0.928-0.635-1.614c0-0.453,0.103-0.853,0.311-1.201
			c0.206-0.348,0.517-0.641,0.931-0.88c0.414-0.238,0.93-0.413,1.548-0.526l1.73-0.328v-0.227c0-0.452-0.096-0.782-0.289-0.989
			c-0.192-0.206-0.536-0.31-1.033-0.31c-0.716,0-1.443,0.255-2.183,0.766l-0.686-1.124c0.857-0.618,1.874-0.927,3.052-0.927
			c0.983,0,1.692,0.22,2.129,0.66c0.435,0.441,0.653,1.104,0.653,1.99v3.271C14.04,20.676,14.174,21.229,14.442,21.719z
			 M12.397,20.019V18.12c-1.261,0.239-2.048,0.492-2.362,0.759c-0.313,0.268-0.471,0.604-0.471,1.008
			c0,0.657,0.336,0.985,1.008,0.985C11.059,20.872,11.667,20.588,12.397,20.019z"/>
		<path class="st3" d="M22.561,14.324l-2.913,7.294c-0.711,1.781-1.828,2.973-3.351,3.577l-0.657-1.081
			c1.149-0.481,2.025-1.394,2.628-2.737l-2.986-7.053h1.716l2.081,5.023l2.001-5.023H22.561z"/>
		<path class="st3" d="M38.178,14.324l-3.023,7.52l-0.956,0.241l-1.913-4.819l-1.811,4.577l-0.942,0.241l-2.979-7.762h1.665
			l1.833,4.965l1.855-4.608l0.883-0.226l1.913,4.863l1.993-4.994H38.178z"/>
		<path class="st3" d="M40.164,11.286c0.292,0,0.532,0.093,0.719,0.281c0.187,0.187,0.281,0.426,0.281,0.718
			s-0.095,0.534-0.285,0.727c-0.19,0.192-0.428,0.288-0.716,0.288c-0.292,0-0.534-0.096-0.726-0.288
			c-0.193-0.193-0.289-0.435-0.289-0.727s0.096-0.532,0.289-0.718C39.629,11.38,39.872,11.286,40.164,11.286z M40.974,21.902h-1.65
			v-7.36l1.65-0.401V21.902z"/>
		<path class="st3" d="M46.582,20.617l0.343,1.168c-0.613,0.2-1.173,0.3-1.679,0.3c-0.662,0-1.144-0.175-1.446-0.526
			c-0.302-0.35-0.453-0.925-0.453-1.723v-4.381h-1.3l0.372-1.132h0.927v-1.913l1.643-0.423v2.336h1.935l-0.38,1.132H44.99v3.92
			c0,0.638,0.042,1.042,0.128,1.212c0.085,0.17,0.269,0.255,0.551,0.255C45.912,20.843,46.217,20.768,46.582,20.617z"/>
		<path class="st3" d="M54.818,21.902h-1.651V17.15c0-0.565-0.08-0.983-0.24-1.256c-0.161-0.273-0.462-0.409-0.905-0.409
			c-0.798,0-1.531,0.484-2.198,1.452v4.965h-1.65V10.958l1.65-0.417V15.2c0.808-0.706,1.659-1.058,2.555-1.058
			c0.837,0,1.453,0.22,1.848,0.66c0.394,0.441,0.592,1.138,0.592,2.092V21.902z"/>
	</g>
</g>
</svg>
