<?xml version="1.0" encoding="utf-8"?>
<!-- Generator: Adobe Illustrator 19.0.1, SVG Export Plug-In . SVG Version: 6.00 Build 0)  -->
<svg version="1.1" id="Layer_1" xmlns="http://www.w3.org/2000/svg" xmlns:xlink="http://www.w3.org/1999/xlink" x="0px" y="0px"
	 viewBox="0 0 232 34" style="enable-background:new 0 0 232 34;" xml:space="preserve">
<style type="text/css">
	.st0{fill:#454545;}
	.st1{fill:#00ACED;}
	.st2{fill:url(#SVGID_1_);}
	.st3{fill:#0074A6;}
	.st4{fill:#FFFFFF;}
	.st5{fill:url(#SVGID_2_);}
</style>
<g>
	<g>
		<g>
			<g>
				<path class="st4" d="M97.957,21.243c-1.203,0-2.036-0.407-2.56-0.931v4.519l-1.552,0.446V13.524
					c0-0.679-0.136-1.513-0.543-2.172l1.396-0.407c0.194,0.291,0.407,0.757,0.504,1.222c0.582-0.562,1.649-1.222,2.909-1.222
					c2.638,0,4.325,1.978,4.325,4.985C102.437,19.207,100.42,21.243,97.957,21.243z M97.938,12.264
					c-1.183,0-1.978,0.756-2.541,1.338v4.15c0,1.047,0.601,2.191,2.483,2.191c2.075,0,2.831-1.939,2.831-4.034
					C100.711,13.466,99.431,12.264,97.938,12.264z"/>
				<path class="st4" d="M105.094,9.626c-0.523,0-0.969-0.446-0.969-0.97c0-0.523,0.446-0.95,0.969-0.95
					c0.524,0,0.95,0.427,0.95,0.95C106.044,9.18,105.618,9.626,105.094,9.626z M104.318,21.01v-9.62l1.552-0.446V21.01H104.318z"/>
				<path class="st4" d="M115.082,21.01v-6.206c0-1.842-0.524-2.541-1.959-2.541c-1.261,0-3.239,1.28-3.239,2.676v6.07h-1.552v-9.62
					l1.552-0.446v1.63c0.718-0.737,1.978-1.63,3.529-1.63c2.037,0,3.22,0.873,3.22,3.549v6.516H115.082z"/>
				<path class="st4" d="M122.666,25.277c-1.436,0-2.657-0.291-3.569-0.699l-0.116-1.377c0.873,0.368,1.978,0.795,3.53,0.795
					c1.823,0,2.89-1.164,2.89-3.355V20.08c-0.582,0.485-1.513,1.047-2.715,1.047c-2.618,0-4.325-1.978-4.325-4.945
					c0-3.627,2.308-5.237,4.791-5.237c0.931,0,1.862,0.252,2.56,0.582l1.241-0.349v8.902
					C126.952,23.57,125.342,25.277,122.666,25.277z M125.4,12.807c-0.66-0.349-1.338-0.582-2.114-0.582
					c-2.017,0-3.201,1.319-3.201,3.86c0,2.327,1.047,3.724,2.89,3.724c1.125,0,2.425-0.989,2.425-1.901V12.807z"/>
				<path class="st4" d="M130.19,9.626c-0.523,0-0.969-0.446-0.969-0.97c0-0.523,0.446-0.95,0.969-0.95
					c0.524,0,0.95,0.427,0.95,0.95C131.141,9.18,130.714,9.626,130.19,9.626z M129.415,21.01v-9.62l1.552-0.446V21.01H129.415z"/>
				<path class="st4" d="M137.968,12.341h-2.386v5.74c0,1.416,0.194,1.862,0.989,1.862c0.446,0,0.931-0.116,1.319-0.271l0.369,1.183
					c-0.582,0.213-1.397,0.388-2.134,0.388c-1.416,0-2.094-0.834-2.094-2.676v-6.226h-1.959l0.427-1.164h1.532V8.714l1.552-0.446
					v2.909h2.773L137.968,12.341z"/>
			</g>
			<g>
				<path class="st4" d="M75.692,0c-6.567,0-11.89,5.322-11.89,11.887c0,0.099,0,0.296,0,0.296v11.361l0.012,0.335
					c0.131,1.49,1.381,2.658,2.905,2.658s2.774-1.169,2.905-2.658l0.012-0.259v-1.503c1.774,1.052,3.844,1.657,6.057,1.657
					c6.567,0,11.89-5.322,11.89-11.887C87.582,5.322,82.258,0,75.692,0z M75.692,17.942c-3.34,0-6.057-2.716-6.057-6.055
					s2.717-6.055,6.057-6.055c3.34,0,6.057,2.716,6.057,6.055S79.031,17.942,75.692,17.942z"/>
				<circle class="st4" cx="66.718" cy="30.62" r="2.917"/>
				<linearGradient id="SVGID_1_" gradientUnits="userSpaceOnUse" x1="69.6331" y1="17.8409" x2="75.7207" y2="17.8409">
					<stop  offset="0" style="stop-color:#CACACA"/>
					<stop  offset="0.0431" style="stop-color:#D9D9D9"/>
					<stop  offset="0.1137" style="stop-color:#EAEAEA"/>
					<stop  offset="0.2005" style="stop-color:#F6F6F6"/>
					<stop  offset="0.32" style="stop-color:#FDFDFD"/>
					<stop  offset="0.6261" style="stop-color:#FFFFFF"/>
					<stop  offset="1" style="stop-color:#FFFFFF"/>
				</linearGradient>
				<path class="st2" d="M69.633,11.905L69.633,11.905l0,10.218c1.783,1.051,3.864,1.655,6.088,1.655v-5.825
					C72.364,17.952,69.633,15.239,69.633,11.905z"/>
			</g>
			<rect x="146.829" y="4.295" class="st4" width="0.248" height="22"/>
		</g>
		<g>
			<path class="st4" d="M0,11.232c1.016-0.058,1.877-0.087,2.584-0.087c1.558,0,2.656,0.242,3.295,0.726s0.958,1.15,0.958,1.996
				c0,1.098-0.444,1.955-1.331,2.568c-0.888,0.615-2.137,0.946-3.749,0.995v4.296H0V11.232z M1.756,16.167
				c1.035-0.039,1.831-0.242,2.388-0.61C4.7,15.19,4.978,14.68,4.978,14.025c0-1.078-0.789-1.618-2.366-1.618
				c-0.281,0-0.566,0.015-0.856,0.044V16.167z"/>
			<path class="st4" d="M14.354,21.544l-1.43,0.364c-0.164-0.219-0.298-0.501-0.399-0.85c-0.711,0.566-1.478,0.85-2.3,0.85
				c-0.755,0-1.343-0.194-1.763-0.581C8.041,20.94,7.83,20.405,7.83,19.723c0-0.45,0.103-0.848,0.309-1.194
				c0.205-0.345,0.514-0.637,0.925-0.875c0.411-0.236,0.924-0.41,1.538-0.523l1.72-0.326V16.58c0-0.449-0.096-0.777-0.287-0.983
				c-0.191-0.205-0.533-0.308-1.027-0.308c-0.711,0-1.434,0.254-2.17,0.762l-0.682-1.118c0.851-0.614,1.863-0.921,3.033-0.921
				c0.977,0,1.682,0.219,2.116,0.656c0.433,0.438,0.649,1.097,0.649,1.978v3.251C13.955,20.507,14.088,21.056,14.354,21.544z
				 M12.323,19.853v-1.887c-1.253,0.237-2.035,0.489-2.348,0.755c-0.312,0.266-0.468,0.6-0.468,1.001
				c0,0.653,0.334,0.979,1.001,0.979C10.992,20.702,11.597,20.419,12.323,19.853z"/>
			<path class="st4" d="M22.424,14.193l-2.896,7.25c-0.706,1.771-1.817,2.955-3.331,3.555l-0.653-1.074
				c1.142-0.478,2.013-1.386,2.613-2.721l-2.968-7.01h1.705l2.068,4.993l1.988-4.993H22.424z"/>
			<path class="st4" d="M37.947,14.193l-3.004,7.475l-0.951,0.24l-1.901-4.79l-1.8,4.55l-0.936,0.24l-2.961-7.715h1.655l1.822,4.935
				l1.843-4.58l0.878-0.224l1.901,4.833l1.981-4.964H37.947z"/>
			<path class="st4" d="M39.921,11.174c0.29,0,0.528,0.093,0.715,0.28c0.186,0.186,0.279,0.424,0.279,0.714
				s-0.094,0.531-0.283,0.723c-0.189,0.191-0.426,0.286-0.711,0.286c-0.29,0-0.531-0.096-0.722-0.286
				c-0.192-0.192-0.287-0.433-0.287-0.723s0.095-0.528,0.287-0.714C39.39,11.267,39.631,11.174,39.921,11.174z M40.727,21.726h-1.64
				v-7.315l1.64-0.399V21.726z"/>
			<path class="st4" d="M46.3,20.448l0.341,1.161c-0.61,0.198-1.166,0.298-1.669,0.298c-0.658,0-1.137-0.174-1.437-0.523
				c-0.3-0.348-0.45-0.919-0.45-1.713v-4.354h-1.292l0.37-1.125h0.922v-1.901l1.633-0.421v2.322h1.923l-0.377,1.125h-1.546v3.897
				c0,0.634,0.042,1.035,0.127,1.205c0.084,0.169,0.267,0.254,0.548,0.254C45.635,20.673,45.937,20.598,46.3,20.448z"/>
			<path class="st4" d="M54.487,21.726h-1.641v-4.724c0-0.561-0.079-0.977-0.239-1.248c-0.16-0.271-0.46-0.406-0.9-0.406
				c-0.793,0-1.522,0.481-2.184,1.444v4.935h-1.64V10.848l1.64-0.414v4.63c0.803-0.702,1.649-1.052,2.539-1.052
				c0.832,0,1.445,0.219,1.837,0.656c0.392,0.438,0.588,1.131,0.588,2.079V21.726z"/>
		</g>
	</g>
	<g>
		<g id="Call_to_Action_5_">
			<path class="st4" d="M186.22,3.112c1.887,0,3.061,1.137,3.061,2.999s-1.162,2.986-3.061,2.986h-1.824v2.374
				c0,0.387-0.125,0.512-0.512,0.512h-1.012c-0.387,0-0.512-0.125-0.512-0.512V3.625c0-0.387,0.125-0.512,0.512-0.512H186.22z
				 M186.008,7.236c0.737,0,1.162-0.412,1.162-1.124c0-0.712-0.425-1.15-1.162-1.15h-1.612v2.274H186.008z"/>
			<path class="st4" d="M192.729,5.299c1.862,0,2.786,0.874,2.786,2.636v3.174c0,0.437-0.1,0.575-0.462,0.725
				c-0.5,0.225-1.287,0.337-2.361,0.337c-1.087,0-1.824-0.162-2.237-0.5c-0.412-0.337-0.625-0.85-0.625-1.562
				c0-1.537,0.812-2.049,2.911-2.049c0.325,0,0.625,0.012,0.887,0.025V7.81c0-0.612-0.325-0.925-0.962-0.925
				c-0.462,0-0.799,0.15-1.037,0.462c-0.213,0.287-0.288,0.337-0.637,0.2l-0.687-0.288c-0.313-0.137-0.4-0.35-0.25-0.662
				C190.518,5.736,191.404,5.299,192.729,5.299 M193.629,9.522c-0.075,0-0.237,0-0.487-0.012c-0.25-0.012-0.437-0.012-0.562-0.012
				c-0.662,0-0.862,0.212-0.862,0.6c0,0.4,0.187,0.612,0.837,0.612c0.437,0,0.775-0.012,0.987-0.05
				c0.062-0.012,0.087-0.05,0.087-0.087V9.522z"/>
			<path class="st4" d="M202,5.486c0.337,0,0.45,0.112,0.45,0.462v6.135c0,1.737-0.899,2.774-2.849,2.774
				c-1.299,0-2.186-0.387-2.674-1.162c-0.212-0.312-0.15-0.562,0.188-0.737l0.712-0.362c0.35-0.188,0.512-0.138,0.725,0.162
				c0.225,0.312,0.562,0.475,1.012,0.475c0.662,0,1-0.337,1-1.012v-0.512c-0.3,0.062-0.687,0.087-1.162,0.087
				c-1.799,0-2.699-0.862-2.699-2.586V5.949c0-0.35,0.112-0.462,0.462-0.462h0.962c0.35,0,0.462,0.112,0.462,0.462v3.199
				c0,0.625,0.35,0.937,1.062,0.937c0.288,0,0.587-0.025,0.912-0.087V5.949c0-0.35,0.112-0.462,0.462-0.462H202z"/>
			<path class="st4" d="M207.572,2.738c0.337,0,0.45,0.112,0.45,0.462v2.224c0.387-0.087,0.787-0.125,1.175-0.125
				c1.799,0,2.699,0.925,2.699,2.586v1.562c0,1.812-0.975,2.724-2.936,2.724c-0.975,0-1.762-0.137-2.361-0.412
				c-0.4-0.2-0.462-0.3-0.462-0.7V3.2c0-0.35,0.113-0.462,0.462-0.462H207.572z M209.996,7.898c0-0.612-0.35-0.912-1.05-0.912
				c-0.312,0-0.612,0.05-0.925,0.137v3.199c0,0.038,0.012,0.05,0.037,0.063c0.212,0.062,0.475,0.1,0.8,0.1
				c0.762,0,1.137-0.35,1.137-1.037V7.898z"/>
			<path class="st4" d="M218.292,5.486c0.337,0,0.45,0.112,0.45,0.462v6.135c0,1.737-0.899,2.774-2.849,2.774
				c-1.299,0-2.186-0.387-2.674-1.162c-0.213-0.312-0.15-0.562,0.187-0.737l0.712-0.362c0.35-0.188,0.512-0.138,0.725,0.162
				c0.225,0.312,0.562,0.475,1.012,0.475c0.662,0,1-0.337,1-1.012v-0.512c-0.3,0.062-0.687,0.087-1.162,0.087
				c-1.799,0-2.699-0.862-2.699-2.586V5.949c0-0.35,0.112-0.462,0.462-0.462h0.962c0.35,0,0.462,0.112,0.462,0.462v3.199
				c0,0.625,0.35,0.937,1.062,0.937c0.288,0,0.587-0.025,0.912-0.087V5.949c0-0.35,0.112-0.462,0.462-0.462H218.292z"/>
			<path class="st4" d="M193.061,17.237c1.862,0,2.786,0.875,2.786,2.636v3.174c0,0.437-0.1,0.575-0.462,0.725
				c-0.5,0.225-1.287,0.337-2.361,0.337c-1.087,0-1.824-0.162-2.237-0.5c-0.413-0.337-0.625-0.85-0.625-1.562
				c0-1.537,0.812-2.049,2.911-2.049c0.325,0,0.625,0.012,0.887,0.025v-0.275c0-0.612-0.325-0.925-0.962-0.925
				c-0.462,0-0.799,0.15-1.037,0.462c-0.213,0.287-0.288,0.337-0.637,0.2l-0.687-0.288c-0.313-0.137-0.4-0.35-0.25-0.662
				C190.849,17.674,191.736,17.237,193.061,17.237 M193.96,21.46c-0.075,0-0.237,0-0.487-0.012c-0.25-0.012-0.437-0.012-0.562-0.012
				c-0.662,0-0.862,0.212-0.862,0.6c0,0.4,0.187,0.612,0.837,0.612c0.437,0,0.775-0.012,0.987-0.05
				c0.062-0.012,0.087-0.05,0.087-0.087V21.46z"/>
			<path class="st4" d="M200.032,17.237c1.799,0,2.699,0.862,2.699,2.586v3.636c0,0.35-0.112,0.462-0.45,0.462h-0.975
				c-0.35,0-0.462-0.112-0.462-0.462v-3.574c0-0.625-0.35-0.937-1.062-0.937c-0.325,0-0.612,0.037-0.875,0.112
				c-0.025,0-0.037,0.012-0.037,0.05v4.348c0,0.35-0.112,0.462-0.462,0.462h-0.962c-0.35,0-0.462-0.112-0.462-0.462v-5.048
				c0-0.412,0.1-0.562,0.5-0.725C198.208,17.387,199.058,17.237,200.032,17.237"/>
			<path class="st4" d="M209.728,23.359c0.213,0.4,0.138,0.562-0.312,0.562h-0.862c-0.537,0-0.662-0.063-0.824-0.425l-0.662-1.537
				c-0.137-0.337-0.412-0.5-0.8-0.5h-0.437v1.987c0,0.362-0.112,0.475-0.475,0.475h-0.937c-0.362,0-0.475-0.113-0.475-0.475V15.15
				c0-0.362,0.113-0.475,0.475-0.475h0.937c0.362,0,0.475,0.112,0.475,0.475v4.636h0.262h0.075l1.412-1.987
				c0.212-0.337,0.35-0.375,0.887-0.375h0.837c0.462,0,0.575,0.187,0.312,0.55l-1.674,2.286c0.25,0.175,0.487,0.475,0.7,0.9
				L209.728,23.359z"/>
			<path class="st4" d="M215.5,17.237c1.862,0,2.786,0.875,2.786,2.636v3.174c0,0.437-0.1,0.575-0.462,0.725
				c-0.5,0.225-1.287,0.337-2.361,0.337c-1.087,0-1.824-0.162-2.236-0.5c-0.413-0.337-0.625-0.85-0.625-1.562
				c0-1.537,0.812-2.049,2.911-2.049c0.325,0,0.625,0.012,0.887,0.025v-0.275c0-0.612-0.325-0.925-0.962-0.925
				c-0.462,0-0.799,0.15-1.037,0.462c-0.213,0.287-0.288,0.337-0.637,0.2l-0.687-0.288c-0.313-0.137-0.4-0.35-0.25-0.662
				C213.288,17.674,214.175,17.237,215.5,17.237 M216.399,21.46c-0.075,0-0.237,0-0.487-0.012c-0.25-0.012-0.437-0.012-0.562-0.012
				c-0.662,0-0.862,0.212-0.862,0.6c0,0.4,0.187,0.612,0.837,0.612c0.437,0,0.775-0.012,0.987-0.05
				c0.062-0.012,0.087-0.05,0.087-0.087V21.46z"/>
			<path class="st4" d="M222.459,17.237c1.837,0,2.724,0.925,2.724,2.586v1.574c0,1.762-0.975,2.711-2.886,2.711
				c-0.287,0-0.612-0.037-0.987-0.112v2.212c0,0.35-0.113,0.462-0.45,0.462h-0.975c-0.35,0-0.462-0.112-0.462-0.462v-7.859
				c0-0.412,0.1-0.562,0.5-0.725C220.597,17.362,221.447,17.237,222.459,17.237 M223.284,19.836c0-0.612-0.35-0.912-1.05-0.912
				c-0.287,0-0.575,0.025-0.862,0.087c-0.038,0.012-0.063,0.037-0.063,0.087v3.249c0.312,0.05,0.6,0.075,0.837,0.075
				c0.762,0,1.137-0.337,1.137-1.025V19.836z"/>
			<path class="st4" d="M229.268,17.237c1.837,0,2.724,0.925,2.724,2.586v1.574c0,1.762-0.975,2.711-2.886,2.711
				c-0.287,0-0.612-0.037-0.987-0.112v2.212c0,0.35-0.113,0.462-0.45,0.462h-0.975c-0.35,0-0.462-0.112-0.462-0.462v-7.859
				c0-0.412,0.1-0.562,0.5-0.725C227.406,17.362,228.256,17.237,229.268,17.237 M230.093,19.836c0-0.612-0.35-0.912-1.05-0.912
				c-0.287,0-0.575,0.025-0.862,0.087c-0.038,0.012-0.063,0.037-0.063,0.087v3.249c0.312,0.05,0.6,0.075,0.837,0.075
				c0.762,0,1.137-0.337,1.137-1.025V19.836z"/>
			<path class="st4" d="M186.376,15.043c1.67,0,2.675,0.866,2.675,2.373c0,0.841-0.289,1.457-0.866,1.858v0.05
				c0.804,0.339,1.206,1.067,1.206,2.16c0,0.778-0.276,1.381-0.816,1.821c-0.552,0.44-1.268,0.653-2.147,0.653h-3.579
				c-0.389,0-0.515-0.126-0.515-0.515v-7.886c0-0.389,0.126-0.515,0.515-0.515H186.376z M186.062,18.559
				c0.615,0,0.917-0.289,0.917-0.854c0-0.565-0.301-0.854-0.917-0.854h-1.682v1.708H186.062z M186.301,20.33h-1.921v1.821h1.921
				c0.628,0,0.942-0.301,0.942-0.904C187.243,20.631,186.929,20.33,186.301,20.33"/>
		</g>
		<path id="Icon_3_" class="st4" d="M161.87,28.534c0.439,0,0.796,0.356,0.796,0.796s-0.356,0.796-0.796,0.796
			c-0.439,0-0.796-0.356-0.796-0.796S161.43,28.534,161.87,28.534 M177.424,3.114h-10.527c-0.741,0-1.341,0.6-1.341,1.341v3.39
			c0,0.345,0.28,0.625,0.625,0.625h1.623c0.345,0,0.625-0.28,0.625-0.625V6.612c0-0.345,0.28-0.625,0.625-0.625h6.215
			c0.345,0,0.625,0.28,0.625,0.625v13.891c0,0.345-0.28,0.625-0.625,0.625h-9.402l5.938-8.088c0.221-0.301,0.34-0.664,0.34-1.037
			v-0.325c0-0.777-0.63-1.407-1.406-1.407H156.64c-0.74,0-1.341,0.601-1.341,1.341v18.204c0,0.741,0.601,1.341,1.341,1.341h10.463
			c0.741,0,1.341-0.6,1.341-1.341v-3.39c0-0.345-0.28-0.625-0.625-0.625h-1.623c-0.345,0-0.624,0.28-0.624,0.625v0.507
			c0,0.345-0.28,0.625-0.625,0.625h-6.151c-0.345,0-0.625-0.28-0.625-0.625V13.768c0-0.345,0.28-0.625,0.625-0.625h9.367
			l-5.923,8.105c-0.204,0.293-0.31,0.662-0.31,1.02v0.325c0,0.756,0.623,1.4,1.395,1.406l0,0h14.099c0.741,0,1.341-0.6,1.341-1.341
			V4.456C178.764,3.715,178.164,3.114,177.424,3.114"/>
	</g>
</g>
</svg>
